<?xml version="1.0" encoding="utf-8"?>
<!-- Generator: Adobe Illustrator 19.2.1, SVG Export Plug-In . SVG Version: 6.00 Build 0)  -->
<svg version="1.1" id="Layer_1" xmlns="http://www.w3.org/2000/svg" xmlns:xlink="http://www.w3.org/1999/xlink" x="0px" y="0px"
	 viewBox="0 0 274 246" style="enable-background:new 0 0 274 246;" xml:space="preserve">
<style type="text/css">
	.st0{fill:#E8E8E8;}
</style>
<path class="st0" d="M192.4,20H67.1c-21.8,0-39.5,17.7-39.5,39.5v41.7v83.6c0,21.8,17.7,39.5,39.5,39.5h125.3
	c21.8,0,39.5-17.7,39.5-39.5v-83.6V59.5C231.9,37.7,214.2,20,192.4,20z M203.7,43.5l4.5,0V48v30.1l-34.5,0.1l-0.1-34.6L203.7,43.5z
	 M100.6,101.2c6.5-9.1,17.2-15,29.1-15c12,0,22.6,5.9,29.1,15c4.3,5.9,6.8,13.1,6.8,21c0,19.8-16.1,35.9-36,35.9
	c-19.8,0-35.9-16.1-35.9-35.9C93.8,114.3,96.4,107.1,100.6,101.2z M212,184.8c0,10.8-8.8,19.6-19.6,19.6H67.1
	c-10.8,0-19.6-8.8-19.6-19.6v-83.6H78c-2.6,6.5-4.1,13.5-4.1,21c0,30.8,25,55.8,55.8,55.8s55.8-25.1,55.8-55.8
	c0-7.4-1.5-14.5-4.1-21H212L212,184.8L212,184.8z"/>
</svg>
