<?xml version="1.0" encoding="utf-8"?>
<!-- Generator: Adobe Illustrator 19.2.1, SVG Export Plug-In . SVG Version: 6.00 Build 0)  -->
<svg version="1.1" id="Layer_1" xmlns="http://www.w3.org/2000/svg" xmlns:xlink="http://www.w3.org/1999/xlink" x="0px" y="0px"
	 viewBox="0 0 566.5 407.5" style="enable-background:new 0 0 566.5 407.5;" xml:space="preserve">
<style type="text/css">
	.st0{fill:#E8E8E8;}
</style>
<g>
	<path class="st0" d="M137.2,329.9c0,23-15.1,46.3-44.7,46.3c-30,0-44.9-23.3-44.9-46.3c0-23,14.8-46.2,44.9-46.2
		C122.1,283.8,137.2,306.9,137.2,329.9z M117.3,330.2c0-14-8.5-28.1-24.8-28.1c-16.5,0-24.8,14-24.8,28.1c0,13.9,8.3,27.7,24.8,27.7
		C108.9,357.9,117.3,344.1,117.3,330.2z"/>
	<path class="st0" d="M206.5,329.4c12.6,5.9,12,18.6,12,18.6c0,25.9-26.7,27-32.8,27h-28.9c-1.7,0-2.7-1.2-2.7-2.2v-86.5
		c0-1.2,1-2.3,2.7-2.3h28.9c0,0,31.5-0.6,31.5,26.5C217.2,320.3,212.8,326.1,206.5,329.4z M173.9,320h11.8c0,0,11.4,0,11.4-8.5
		c0-9.4-11.4-9.2-11.4-9.2h-11.8V320z M198.5,347.6c0-9.1-12.7-8.5-12.7-8.5h-11.8v17.2h11.8C190.7,356.3,198.5,355,198.5,347.6z"/>
	<path class="st0" d="M284.1,356c1.7,0,2.9,1.2,2.9,2.3v14.4c0,1-1.2,2.2-2.9,2.2h-46.5c-1.6,0-2.7-1.2-2.7-2.2v-86.5
		c0-1.2,1.2-2.3,2.7-2.3h14.6c1.6,0,2.7,1.2,2.7,2.3V356H284.1z"/>
	<path class="st0" d="M337.2,301.7v55.6h7.4c1.6,0,2.7,1.2,2.7,2.2v13.3c0,1-1.2,2.2-2.7,2.2h-34.8c-1.6,0-2.7-1.2-2.7-2.2v-13.3
		c0-1,1.2-2.2,2.7-2.2h7.5v-55.6h-7c-1.6,0-2.7-1.2-2.7-2.2v-13.1c0-1.2,1.2-2.3,2.7-2.3h33.8c1.7,0,2.7,1.2,2.7,2.3v13.1
		c0,1-1,2.2-2.7,2.2H337.2z"/>
	<path class="st0" d="M446.2,321.3c1.6,0,2.6,1.2,2.6,2.2v49.5c0,1.2-1,2.3-2.6,2.3h-12.6c-1.4,0-2.9-0.9-2.9-2.2
		c-0.1-2.6-0.3-2-0.3-4.7c-6,5.5-13.3,7.8-22.4,7.8c-24.7,0-44.1-17.2-44.1-46.8c0-27,20.7-46.8,46-46.8c12.5,0,24.4,5.5,32.5,13.4
		c0.6,0.9,0.6,2.7-0.3,3.5l-10.1,10c-1,0.9-2.7,0.8-3.5-0.1c-4.8-4.8-11.4-7.8-18.6-7.8c-14.3,0-26,10.3-26,27.8
		c0,19.5,11.7,27.8,26,27.8c7.3,0,13.9-3.2,18.9-8.5v-9.8h-12.7c-1.7,0-2.9-0.9-2.9-2.2v-13.4c0-1,1.2-2.2,2.9-2.2H446.2z"/>
	<path class="st0" d="M486.9,302.6V320h33.3c1.6,0,2.6,1.2,2.6,2.3v14c0,1-1,2.2-2.6,2.2h-33.3V356h40.4c1.7,0,2.9,1.2,2.9,2.3v14.4
		c0,1-1.2,2.2-2.9,2.2h-57.6c-1.7,0-2.7-1.2-2.7-2.2v-86.5c0-1.2,1-2.3,2.7-2.3h56.6c1.6,0,2.7,1.2,2.7,2.3v13.9
		c0,1.2-1.2,2.3-2.7,2.3H486.9z"/>
</g>
<path class="st0" d="M287.5,139.6l-22.8-99.7c-0.7-3.1-2.9-5.6-5.9-6.8c-1-0.4-2.1-0.6-3.2-0.6c-2,0-3.9,0.6-5.6,1.8l-46.3,34
	L169,42.9c-1.6-1.2-3.5-1.8-5.5-1.8c-2,0-3.9,0.6-5.6,1.8l-34.7,25.5l-46.4-34c-2.5-1.8-5.8-2.3-8.8-1.2c-3,1.1-5.2,3.6-5.9,6.7
	l-22.8,99.7c-0.7,2.8,0,5.7,1.8,8l63.8,80c1.8,2.3,4.5,3.6,7.4,3.6h41.8v134.4c0,5.2,4.2,9.4,9.4,9.4c5.2,0,9.4-4.2,9.4-9.4V231.1
	h41.7c2.9,0,5.6-1.3,7.3-3.5l63.8-80C287.5,145.3,288.1,142.4,287.5,139.6z M268.2,139.4l-51.4,64.5l-41.6-91.2L249.6,58
	L268.2,139.4z M200,212.3h-73l36.5-80L200,212.3z M139,80.1l24.4-17.9l24.4,17.9L163.4,98L139,80.1z M151.7,112.7l-41.6,91.2
	l-51.4-64.5L77.3,58L151.7,112.7z"/>
</svg>
