<svg id="Layer_1" data-name="Layer 1" xmlns="http://www.w3.org/2000/svg" viewBox="0 0 248.69 342.5"><defs><style>.cls-1{fill:#fff;}</style></defs><path class="cls-1" d="M287.5,139.6,264.7,39.9a9.62,9.62,0,0,0-5.9-6.8,8.66,8.66,0,0,0-3.2-.6,9.58,9.58,0,0,0-5.6,1.8l-46.3,34L169,42.9a9.06,9.06,0,0,0-5.5-1.8,9.58,9.58,0,0,0-5.6,1.8L123.2,68.4l-46.4-34A9.49,9.49,0,0,0,68,33.2a9.29,9.29,0,0,0-5.9,6.7L39.3,139.6a9.27,9.27,0,0,0,1.8,8l63.8,80a9.33,9.33,0,0,0,7.4,3.6h41.8V365.6a9.4,9.4,0,1,0,18.8,0V231.1h41.7a9.2,9.2,0,0,0,7.3-3.5l63.8-80A9.6,9.6,0,0,0,287.5,139.6Zm-19.3-.2-51.4,64.5-41.6-91.2L249.6,58ZM200,212.3H127l36.5-80ZM139,80.1l24.4-17.9,24.4,17.9L163.4,98Zm12.7,32.6-41.6,91.2L58.7,139.4,77.3,58Z" transform="translate(-39.03 -32.5)"/></svg>