<svg id="Layer_1" data-name="Layer 1" xmlns="http://www.w3.org/2000/svg" viewBox="0 0 248.69 342.5"><defs><style>.cls-1{fill:#fff;}</style></defs><path class="cls-1" d="M544.5,531.6l-22.8-99.7a9.62,9.62,0,0,0-5.9-6.8,8.66,8.66,0,0,0-3.2-.6,9.58,9.58,0,0,0-5.6,1.8l-46.3,34L426,434.9a9.06,9.06,0,0,0-5.5-1.8,9.58,9.58,0,0,0-5.6,1.8l-34.7,25.5-46.4-34a9.49,9.49,0,0,0-8.8-1.2,9.29,9.29,0,0,0-5.9,6.7l-22.8,99.7a9.27,9.27,0,0,0,1.8,8l63.8,80a9.33,9.33,0,0,0,7.4,3.6h41.8V757.6a9.4,9.4,0,1,0,18.8,0V623.1h41.7a9.2,9.2,0,0,0,7.3-3.5l63.8-80A9.6,9.6,0,0,0,544.5,531.6Zm-19.3-.2-51.4,64.5-41.6-91.2L506.6,450ZM457,604.3H384l36.5-80ZM396,472.1l24.4-17.9,24.4,17.9L420.4,490Zm12.7,32.6-41.6,91.2-51.4-64.5L334.3,450Z" transform="translate(-296.03 -424.5)"/></svg>